<svg id="레이어_1" data-name="레이어 1" xmlns="http://www.w3.org/2000/svg" xmlns:xlink="http://www.w3.org/1999/xlink" viewBox="0 0 850.39 367.45"><defs><style>.cls-1{fill:none;}.cls-2{fill:#fabe00;}.cls-3{fill:#002f82;}.cls-4{clip-path:url(#clip-path);}.cls-5{fill:#898989;}.cls-6{fill:#00a581;}</style><clipPath id="clip-path" transform="translate(-14.17 -14.7)"><rect class="cls-1" width="878.74" height="396.85"/></clipPath></defs><polygon class="cls-2" points="483.23 80.19 483.04 80.38 483.04 139.99 509.87 139.99 509.87 83.45 566.41 83.45 566.41 56.62 506.8 56.62 483.23 80.19"/><polygon class="cls-2" points="793.86 56.54 793.86 0 767.02 0 767.02 56.62 710.54 56.62 710.54 83.45 767.08 83.45 767.08 139.99 793.91 139.99 793.91 83.37 850.39 83.37 850.39 56.54 793.86 56.54"/><polygon class="cls-2" points="509.87 284.08 483.04 284.08 483.04 343.7 506.61 367.27 506.8 367.45 566.41 367.45 566.41 340.62 509.87 340.62 509.87 284.08"/><polygon class="cls-2" points="767.08 340.62 710.54 340.62 710.54 367.45 770.15 367.45 793.73 343.88 793.91 343.7 793.91 284.08 767.08 284.08 767.08 340.62"/><path class="cls-3" d="M736.69,220.34H695.34V200.63h41.35Zm0-62.68v21.65H695.34V157.66H674v84h84v-84Z" transform="translate(-14.17 -14.7)"/><polygon class="cls-3" points="691.18 291.19 712.5 291.19 712.5 264.73 749.61 264.73 749.61 243.41 654.08 243.41 654.08 264.73 691.18 264.73 691.18 291.19"/><path class="cls-3" d="M78.65,220.34H37.3V200.63H78.65Zm0-62.68v21.65H37.3V157.66H16v84h84v-84Z" transform="translate(-14.17 -14.7)"/><polygon class="cls-3" points="54.46 241.49 33.14 241.49 33.14 269.87 1.79 269.87 1.79 291.19 85.81 291.19 85.81 269.87 54.46 269.87 54.46 241.49"/><polygon class="cls-3" points="196.25 174.3 196.25 142.96 174.92 142.96 174.92 226.97 196.25 226.97 196.25 195.63 213.82 195.63 213.82 174.3 196.25 174.3"/><polygon class="cls-3" points="103.66 226.97 162.47 226.97 162.47 205.64 124.99 205.64 124.99 164.28 162.47 164.28 162.47 142.96 103.66 142.96 103.66 226.97"/><polygon class="cls-3" points="343.59 174.3 343.59 142.96 322.26 142.96 322.26 226.97 343.59 226.97 343.59 195.63 361.17 195.63 361.17 174.3 343.59 174.3"/><polygon class="cls-3" points="272.33 205.64 272.33 142.96 272.33 142.96 251.01 142.96 251.01 226.97 309.81 226.97 309.81 226.97 309.81 205.64 309.81 205.64 272.33 205.64"/><rect class="cls-3" x="364.72" y="205.64" width="84.01" height="21.32"/><polygon class="cls-3" points="389.53 241.49 368.21 241.49 368.21 291.19 448.73 291.19 448.73 269.87 389.53 269.87 389.53 241.49"/><g class="cls-4"><path class="cls-3" d="M420.9,163.07a13.67,13.67,0,1,1-13.67,13.66,13.67,13.67,0,0,1,13.67-13.66m0,47.57A33.91,33.91,0,1,0,387,176.73a33.91,33.91,0,0,0,33.91,33.91" transform="translate(-14.17 -14.7)"/></g><polygon class="cls-3" points="618.65 195.63 618.65 226.97 639.98 226.97 639.98 142.96 618.65 142.96 618.65 174.3 597.23 174.3 597.23 195.63 618.65 195.63"/><g class="cls-4"><path class="cls-3" d="M616.4,269.29A13.66,13.66,0,1,1,602.74,283a13.67,13.67,0,0,1,13.66-13.66m0,47.57A33.91,33.91,0,1,0,582.5,283a33.91,33.91,0,0,0,33.9,33.91" transform="translate(-14.17 -14.7)"/></g><polygon class="cls-3" points="599.29 210.27 571.26 182.24 571.26 166.01 596.08 166.01 596.08 144.88 525.32 144.88 525.32 166.01 550.13 166.01 550.13 182.21 522.08 210.27 536.42 224.61 560.68 200.34 584.95 224.61 585.28 224.28 585.29 224.29 599 210.59 598.98 210.57 599.29 210.27"/><g class="cls-4"><path class="cls-5" d="M55.43,70.5v51.17H49.88v-26H43.81v23.46h-5.5V71.52h5.5V90.84h6.07V70.5ZM20,103.76a94.72,94.72,0,0,0,15-1.53l.62,5a98.05,98.05,0,0,1-18.08,1.53h-3.4V76.39H20Z" transform="translate(-14.17 -14.7)"/><path class="cls-5" d="M102.2,96.45H96.36v-26h5.84Zm1.53,20v4.59h-35V107.62H96.42v-4.25H68.66V98.78H102.2v13.14H74.49v4.54Zm-29.35-26c4.48,0,7.82-2.67,7.82-6.75S78.86,77,74.38,77s-7.71,2.66-7.71,6.74,3.29,6.75,7.71,6.75m0,4.76C66.67,95.21,61,90.45,61,83.7s5.67-11.56,13.38-11.56S87.87,77,87.87,83.7,82.14,95.21,74.38,95.21" transform="translate(-14.17 -14.7)"/><path class="cls-5" d="M117.77,80.13c0,2.89,4.25,4.42,12.18,4.42s12.19-1.53,12.19-4.42-4.25-4.47-12.19-4.47-12.18,1.53-12.18,4.47m.4,36.61h30.6v4.48H112.39V108.35h29.18v-3.68h-29.3v-4.42h35v12.24H118.17Zm-6.46-36.61c0-5.72,6.74-8.84,18.24-8.84s18.25,3.12,18.25,8.84-6.8,8.79-18.25,8.79-18.24-3.12-18.24-8.79m41.42,16.44H106.78V91.92h46.35Z" transform="translate(-14.17 -14.7)"/><path class="cls-5" d="M211.4,121.73h-5.84V70.5h5.84ZM178.13,83.42c0,3.63,3.17,6,7.59,6s7.6-2.32,7.6-6-3.12-5.89-7.6-5.89-7.59,2.32-7.59,5.89m-5.61,0c0-6.29,5.55-10.71,13.2-10.71s13.21,4.42,13.21,10.71-5.55,10.77-13.21,10.77-13.2-4.42-13.2-10.77m30.09,17a111.5,111.5,0,0,1-13.71,1.76v18h-5.84V102.52c-4.81.17-9.35.22-13.32.22l-.67-4.81c9.23,0,22.09-.17,33.15-1.82Z" transform="translate(-14.17 -14.7)"/><path class="cls-5" d="M264.76,86.82v4.82H257.5v17.22h-5.83V70.5h5.83V86.82ZM232.68,98.21c4.08,0,6.86-1.93,6.86-5.16s-2.78-5.15-6.86-5.15-6.8,1.92-6.8,5.15,2.78,5.16,6.8,5.16M231,116h28.56v4.76H225.09V105.92H231Zm1.7-13.21c-7.3,0-12.41-3.85-12.41-9.69s5.11-9.69,12.41-9.69,12.41,3.91,12.41,9.69-5,9.69-12.41,9.69M247.81,81h-30.2V76.34h12.18v-5.9h5.84v5.9h12.18Z" transform="translate(-14.17 -14.7)"/><path class="cls-6" d="M315.09,83.36V70.5h5.84V101h-5.84V88.12H306V83.36Zm.23,28.68c0-3.35-4.2-5.16-11.39-5.16s-11.45,1.81-11.45,5.16,4.14,5.15,11.45,5.15,11.39-1.81,11.39-5.15m5.84,0c0,6.12-6.58,9.69-17.23,9.69s-17.29-3.57-17.29-9.69,6.58-9.69,17.29-9.69S321.16,106,321.16,112m-15.08-12.7a20,20,0,0,1-11.9-10.93,21.16,21.16,0,0,1-12.64,12.29l-3-4.64c7.93-2.84,12.52-9.64,12.52-16.66v-.74H280.24V74h27.37v4.7H297v.68c0,6.4,4.36,12.75,12,15.41Z" transform="translate(-14.17 -14.7)"/></g><path class="cls-6" d="M359.67,83.65h-23.4v6.51h23.4Zm5.84,11.22H330.43V72.48h5.84v6.46h23.4V72.48h5.84Zm5.72,10.25H350.78v16.61h-5.84V105.12H324.82v-4.7h46.41Z" transform="translate(-14.17 -14.7)"/><g class="cls-4"><path class="cls-6" d="M415.44,70.5V103H409.6V97h-7.88V92.26h7.88v-5h-7.77v-4.7h7.77V70.5ZM387.55,97.19c3.74,0,6.35-2,6.35-5.21s-2.61-5.16-6.35-5.16-6.29,2-6.29,5.16,2.61,5.21,6.29,5.21m-6.63,8.5h34.52v16H409.6V110.39H380.92Zm6.63-4c-6.8,0-11.73-4-11.73-9.69s4.93-9.64,11.73-9.64,11.79,4,11.79,9.64-4.93,9.69-11.79,9.69m14-21.65H373.16V75.37h11.5V70.05h5.84v5.32h11.05Z" transform="translate(-14.17 -14.7)"/><path class="cls-6" d="M462.74,108H456.9V70.55h5.84Zm1.47,8v4.76H429.3V104.44h5.89V116Zm-15.64-16a20.76,20.76,0,0,1-12.24-11.67,21.93,21.93,0,0,1-12.58,12.63l-3-4.7a18.82,18.82,0,0,0,12.52-17.74v-5.1h6v5.1a17.76,17.76,0,0,0,12.35,16.83Z" transform="translate(-14.17 -14.7)"/></g></svg>